<svg xmlns="http://www.w3.org/2000/svg" viewBox="0 0 382.8 309.3"><path d="M373.2,311.8c-13.4,7.1-28.7,4.3-34.2-6s.7-24.6,14.2-31.7,28.7-4.4,34.2,6S386.7,304.6,373.2,311.8Z" transform="translate(-8.2 -7)" fill="#1d3f30" stroke="#44f1a6"/><path d="M371.9,307.9c-13.3,7-28.2,4.3-33.5-5.7s.8-23.9,14-30.9,28.2-4.3,33.5,5.7S385.1,300.9,371.9,307.9Z" transform="translate(-8.2 -7)" fill="#1d3f30" stroke="#44f1a6"/><path d="M369.8,304.5c-10.7,5.7-22.7,3.5-27-4.5s.6-19.3,11.3-25,22.7-3.4,27,4.6S380.5,298.8,369.8,304.5Z" transform="translate(-8.2 -7)" fill="#182922" stroke="#44f1a6"/><path d="M357.8,289.9l15.1-8-14,1.7Zm0,0,15.1-8-9.3,10.7Zm-1.3-5.1-1.1,6.4,5.9,2.6-10.5-.2Z" transform="translate(-8.2 -7)" fill="#44f1a6" fill-rule="evenodd"/><path d="M54.5,27.1C60,41.3,54.7,56.4,43,61S17.2,57.9,11.7,43.8,11.4,14.5,23.1,9.9,49,12.9,54.5,27.1Z" transform="translate(-8.2 -7)" fill="#1d3f30" stroke="#44f1a6"/><path d="M56.1,25.7c5.4,13.9.4,28.7-11,33.1S20,55.8,14.6,41.9s-.4-28.7,11-33.2S50.7,11.8,56.1,25.7Z" transform="translate(-8.2 -7)" fill="#1d3f30" stroke="#44f1a6"/><path d="M52.2,27.5c4.4,11.2.3,23.1-8.8,26.7S23.1,51.7,18.8,40.5s-.3-23.1,8.9-26.7S47.9,16.2,52.2,27.5Z" transform="translate(-8.2 -7)" fill="#182922" stroke="#44f1a6"/><path d="M37.5,36.9l-6.2-16L31,35.2Zm0,0-6.2-16,9.9,10.3Zm-5.6.7,6.6,1.7,3.6-5.6L40.4,44.2Z" transform="translate(-8.2 -7)" fill="#44f1a6" fill-rule="evenodd"/><path d="M385.1,170.2c-8.5,12.7-23.9,17-34.4,9.9s-12.2-22.9-3.7-35.5,23.9-17,34.4-9.9S393.6,157.6,385.1,170.2Z" transform="translate(-8.2 -7)" fill="#1d3f30" stroke="#44f1a6"/><path d="M382.2,167.8c-8.3,12.4-23.4,16.7-33.5,9.8s-11.8-22.3-3.5-34.7,23.4-16.7,33.5-9.8S390.6,155.4,382.2,167.8Z" transform="translate(-8.2 -7)" fill="#1d3f30" stroke="#44f1a6"/><path d="M378.5,165.6c-6.7,10-18.8,13.5-27,8s-9.5-18-2.8-28,18.9-13.5,27-8S385.3,155.6,378.5,165.6Z" transform="translate(-8.2 -7)" fill="#182922" stroke="#44f1a6"/><path d="M360.4,157.9l9.6-14.2-11.9,7.9Zm0,0,9.6-14.2-2.8,14Zm-3.8-4.2,2.3,6.4,6.8-.2-9.7,4.5Z" transform="translate(-8.2 -7)" fill="#44f1a6" fill-rule="evenodd"/><path d="M55.4,272.7c9.3,12,8.5,28-1.4,35.7s-25.7,4.4-35-7.7-8.5-28,1.5-35.7S46.1,260.6,55.4,272.7Z" transform="translate(-8.2 -7)" fill="#1d3f30" stroke="#44f1a6"/><path d="M54.6,270.8c9.1,11.9,8.5,27.5-1.2,35s-25,4.1-34.1-7.7-8.4-27.5,1.2-34.9S45.5,259,54.6,270.8Z" transform="translate(-8.2 -7)" fill="#1d3f30" stroke="#44f1a6"/><path d="M51.4,273.6c7.4,9.6,6.8,22.2-1,28.2s-20.1,3.3-27.4-6.2-6.8-22.1.9-28.2S44,264.1,51.4,273.6Z" transform="translate(-8.2 -7)" fill="#182922" stroke="#44f1a6"/><path d="M39.9,286.8,29.5,273.3,33.2,287Zm0,0L29.5,273.3l12.3,7Zm-5.1,2.3,6.7-.2,1.9-6.5,1.3,10.7Z" transform="translate(-8.2 -7)" fill="#44f1a6" fill-rule="evenodd"/><path d="M56,272.5a11.4,11.4,0,0,1,8-2.5m53-86s-4.5-1-14,13c-6.4,9.5,1.1,34.8,2.5,55m-36,19.1c10.8,3.8,22,14.8,31.5,3.9,3.1-3.5,4.4-8.8,4.6-15" transform="translate(-8.2 -7)" fill="none" stroke="#44f1a6"/><path d="M42,168c8,3.5,15.5,27.5,31.5,23,8.1-2.3,6.7-12.6,4.6-23M123,151.5c-23,3.5-35.5-13.5-45-7-3.8,2.6-2.7,9.9-1.1,18" transform="translate(-8.2 -7)" fill="none" stroke="#44f1a6"/><path d="M43,165.1c-4.7,10.5-15.7,15.7-24.4,11.8s-12.2-15.6-7.4-26.1S26.9,135,35.6,138.9,47.8,154.5,43,165.1Z" transform="translate(-8.2 -7)" fill="#1d3f30" stroke="#44f1a6"/><path d="M41.7,163.2c-4.7,10.4-15.4,15.5-23.9,11.7s-11.7-15.2-7-25.5,15.3-15.5,23.8-11.7S46.3,152.9,41.7,163.2Z" transform="translate(-8.2 -7)" fill="#1d3f30" stroke="#44f1a6"/><path d="M38.6,162.1c-3.8,8.3-12.4,12.4-19.1,9.4s-9.5-12.2-5.7-20.6,12.4-12.4,19.1-9.4S42.4,153.7,38.6,162.1Z" transform="translate(-8.2 -7)" fill="#182922" stroke="#44f1a6"/><path d="M25.7,158.1l5.4-11.9-8,7.5Zm0,0,5.4-11.9-.3,10.9Zm-3.4-2.6,2.6,4.5,5-1.1-6.7,4.7Z" transform="translate(-8.2 -7)" fill="#44f1a6" fill-rule="evenodd"/><path d="M366.6,36.7c-3,11.2-13,18.1-22.2,15.6s-14.5-13.4-11.5-24.6,13-18.1,22.3-15.6S369.6,25.5,366.6,36.7Z" transform="translate(-8.2 -7)" fill="#1d3f30" stroke="#44f1a6"/><path d="M365,35.1c-3,11-12.7,17.8-21.6,15.4s-14-13.2-11.1-24.2S345,8.6,353.9,11,367.9,24.1,365,35.1Z" transform="translate(-8.2 -7)" fill="#1d3f30" stroke="#44f1a6"/><path d="M361.8,34.4c-2.4,8.9-10.2,14.3-17.4,12.4s-11.3-10.5-8.9-19.4S345.7,13.1,352.9,15,364.2,25.6,361.8,34.4Z" transform="translate(-8.2 -7)" fill="#182922" stroke="#44f1a6"/><path d="M347.4,32.8l3.4-12.6-6.6,8.6Zm0,0,3.4-12.6L352.3,31Zm-3.7-2.1,3.2,4,4.8-1.8-5.8,5.7Z" transform="translate(-8.2 -7)" fill="#44f1a6" fill-rule="evenodd"/><path d="M339.5,306c-12,7.8-34.4,10.4-52,4.5M240,223a25.4,25.4,0,0,1,11,5.7m6.9,8.3c4.3,7.3,7,18.2,4.6,34-2.6,17.7,4.9,29.2,16.5,35.7" transform="translate(-8.2 -7)" fill="none" stroke="#44f1a6"/><path d="M43.5,61c3.3,9.7,12.3,10.6,22.5,9.1m57.5,56.4s-35,7.5-40.5-14,30.5-35,20.5-45.5C98.4,61.6,85,66.3,72,69" transform="translate(-8.2 -7)" fill="none" stroke="#44f1a6"/><path d="M350.5,180c-8,9-12.5,18-27.5,18-11.1,0-18.4-20-27.9-32M260,170.5c12.5,2.5,8-17,24-13a17.3,17.3,0,0,1,7.5,4.5" transform="translate(-8.2 -7)" fill="none" stroke="#44f1a6"/><path d="M343,52a45.4,45.4,0,0,0-6.4,21.5M254,114c16.5-6,19-24.5,30.5-24.5,6.1,0,13.1,10.8,21.1,18.5m4.1,3.5c5.9,4.4,12.3,6,19.3,0,10.9-9.4,8.4-19.2,7.7-31" transform="translate(-8.2 -7)" fill="none" stroke="#44f1a6"/><path d="M152,220v-8h5v8Zm4-7v6h-3v-6Zm32,7v-8h5v8Zm4-7v6h-3v-6Zm5-1v8h5v-8Zm4,7v-6h-3v6Zm14,1v-8h5v8Zm4-7v6h-3v-6Zm-49,11v8h5v-8Zm4,7v-6h-3v6Zm-22,13v-8h5v8Zm4-7v6h-3v-6Zm5-1v8h5v-8Zm4,7v-6h-3v6Zm5,1v-8h5v8Zm4-7v6h-3v-6Zm-4,11v8h5v-8Zm4,7v-6h-3v6Zm-4,13v-8h5v8Zm4-7v6h-3v-6Zm23-1v8h5v-8Zm4,7v-6h-3v6Zm14,1v-8h5v8Zm4-7v6h-3v-6Zm-40-13v8h5v-8Zm4,7v-6h-3v6Zm-31,13v-8h5v8Zm4-7v6h-3v-6Zm50-13v8h5v-8Zm4,7v-6h-3v6Zm-22-11v-8h5v8Zm4-7v6h-3v-6Zm14-1v8h5v-8Zm4,7v-6h-3v6Zm14,1v-8h5v8Zm4-7v6h-3v-6Zm-49-13v8h5v-8Zm4,7v-6h-3v6Zm5,1v-8h5v8Zm4-7v6h-3v-6Zm32-1v8h5v-8Zm4,7v-6h-3v6Zm-67-18v-1h3v7h2v1h-5v-1h2v-6Zm9-1v1h2v6h-2v1h5v-1h-2v-7Zm9,1v-1h3v7h2v1h-5v-1h2v-6Zm27-1v1h2v6h-2v1h5v-1h-2v-7Zm18,1v-1h3v7h2v1h-5v-1h2v-6Zm-72,11v1h2v6h-2v1h5v-1h-2v-7Zm9,1v-1h3v7h2v1h-5v-1h2v-6Zm18,11v1h2v6h-2v1h5v-1h-2v-7Zm-27,13v-1h3v7h2v1h-5v-1h2v-6Zm9-1v1h2v6h-2v1h5v-1h-2v-7Zm0,13v-1h3v7h2v1h-5v-1h2v-6Zm18-1v1h2v6h-2v1h5v-1h-2v-7Zm9,1v-1h3v7h2v1h-5v-1h2v-6Zm18-1v1h2v6h-2v1h5v-1h-2v-7Zm18,1v-1h3v7h2v1h-5v-1h2v-6Zm-36-13v1h2v6h-2v1h5v-1h-2v-7Zm9,1v-1h3v7h2v1h-5v-1h2v-6Zm18-1v1h2v6h-2v1h5v-1h-2v-7Zm9,1v-1h3v7h2v1h-5v-1h2v-6Zm-27-13v1h2v6h-2v1h5v-1h-2v-7Zm18,1v-1h3v7h2v1h-5v-1h2v-6Zm-63,35v8h5v-8Zm4,7v-6h-3v6Zm5,1v-8h5v8Zm4-7v6h-3v-6Zm5-1v8h5v-8Zm4,7v-6h-3v6Zm14,1v-8h5v8Zm4-7v6h-3v-6Zm14-1v8h5v-8Zm4,7v-6h-3v6Zm14,1v-8h5v8Zm4-7v6h-3v-6Zm-49-1v1h2v6h-2v1h5v-1h-2v-7Zm18,1v-1h3v7h2v1h-5v-1h2v-6Zm18-1v1h2v6h-2v1h5v-1h-2v-7Zm-18-47v-1h3v7h2v1h-5v-1h2v-6Zm9-1v1h2v6h-2v1h5v-1h-2v-7Zm9,1v-1h3v7h2v1h-5v-1h2v-6Z" transform="translate(-8.2 -7)" fill="#44f1a6" fill-rule="evenodd"/><path d="M152,52V44h5v8Zm4-7v6h-3V45Zm32,7V44h5v8Zm4-7v6h-3V45Zm5-1v8h5V44Zm4,7V45h-3v6Zm14,1V44h5v8Zm4-7v6h-3V45ZM170,56v8h5V56Zm4,7V57h-3v6ZM152,76V68h5v8Zm4-7v6h-3V69Zm5-1v8h5V68Zm4,7V69h-3v6Zm5,1V68h5v8Zm4-7v6h-3V69Zm-4,11v8h5V80Zm4,7V81h-3v6Zm-4,13V92h5v8Zm4-7v6h-3V93Zm23-1v8h5V92Zm4,7V93h-3v6Zm14,1V92h5v8Zm4-7v6h-3V93ZM179,80v8h5V80Zm4,7V81h-3v6Zm-31,13V92h5v8Zm4-7v6h-3V93Zm50-13v8h5V80Zm4,7V81h-3v6ZM188,76V68h5v8Zm4-7v6h-3V69Zm14-1v8h5V68Zm4,7V69h-3v6Zm14,1V68h5v8Zm4-7v6h-3V69ZM179,56v8h5V56Zm4,7V57h-3v6Zm5,1V56h5v8Zm4-7v6h-3V57Zm32-1v8h5V56Zm4,7V57h-3v6ZM161,45V44h3v7h2v1h-5V51h2V45Zm9-1v1h2v6h-2v1h5V51h-2V44Zm9,1V44h3v7h2v1h-5V51h2V45Zm27-1v1h2v6h-2v1h5V51h-2V44Zm18,1V44h3v7h2v1h-5V51h2V45ZM152,56v1h2v6h-2v1h5V63h-2V56Zm9,1V56h3v7h2v1h-5V63h2V57Zm18,11v1h2v6h-2v1h5V75h-2V68ZM152,81V80h3v7h2v1h-5V87h2V81Zm9-1v1h2v6h-2v1h5V87h-2V80Zm0,13V92h3v7h2v1h-5V99h2V93Zm18-1v1h2v6h-2v1h5V99h-2V92Zm9,1V92h3v7h2v1h-5V99h2V93Zm18-1v1h2v6h-2v1h5V99h-2V92Zm18,1V92h3v7h2v1h-5V99h2V93ZM188,80v1h2v6h-2v1h5V87h-2V80Zm9,1V80h3v7h2v1h-5V87h2V81Zm18-1v1h2v6h-2v1h5V87h-2V80Zm9,1V80h3v7h2v1h-5V87h2V81ZM197,68v1h2v6h-2v1h5V75h-2V68Zm18,1V68h3v7h2v1h-5V75h2V69Zm-63,35v8h5v-8Zm4,7v-6h-3v6Zm5,1v-8h5v8Zm4-7v6h-3v-6Zm5-1v8h5v-8Zm4,7v-6h-3v6Zm14,1v-8h5v8Zm4-7v6h-3v-6Zm14-1v8h5v-8Zm4,7v-6h-3v6Zm14,1v-8h5v8Zm4-7v6h-3v-6Zm-49-1v1h2v6h-2v1h5v-1h-2v-7Zm18,1v-1h3v7h2v1h-5v-1h2v-6Zm18-1v1h2v6h-2v1h5v-1h-2v-7ZM197,57V56h3v7h2v1h-5V63h2V57Zm9-1v1h2v6h-2v1h5V63h-2V56Zm9,1V56h3v7h2v1h-5V63h2V57Z" transform="translate(-8.2 -7)" fill="#44f1a6" fill-rule="evenodd"/><path d="M190,185.7v30.8A69.8,69.8,0,0,1,190,77a45.1,45.1,0,0,0-28.7,79.9h0A28.6,28.6,0,0,0,190,185.7ZM161.3,157H130.5A69.8,69.8,0,0,1,270,157a45.1,45.1,0,0,0-79.9-28.7H190A28.6,28.6,0,0,0,161.3,157ZM190,128.3V97.5A69.8,69.8,0,0,1,190,237a45.1,45.1,0,0,0,28.7-79.9h0A28.6,28.6,0,0,0,190,128.3ZM218.7,157h30.8A69.8,69.8,0,0,1,110,157a45.1,45.1,0,0,0,79.9,28.7h.1A28.6,28.6,0,0,0,218.7,157Z" transform="translate(-8.2 -7)" fill="#44f1a6"/></svg>