<?xml version="1.0" encoding="iso-8859-1"?>
<!-- Generator: Adobe Illustrator 19.0.0, SVG Export Plug-In . SVG Version: 6.00 Build 0)  -->
<svg version="1.1" id="Capa_1" xmlns="http://www.w3.org/2000/svg" xmlns:xlink="http://www.w3.org/1999/xlink" x="0px" y="0px"
	 viewBox="0 0 512 512" style="enable-background:new 0 0 512 512;" xml:space="preserve">
<path style="fill:#5CB38E;" d="M201.377,397.639c-65.657,0-141.215,0-196.53-35.315c-9.465-6.043-3.991-20.639,7.14-19.153
	c43.804,5.848,80.598-5.302,101.58-23.365L201.377,397.639z"/>
<path style="opacity:0.1;enable-background:new    ;" d="M88.802,334.707c0.732,20.968,3.95,41.897,16.875,59.3
	c32.007,3.632,64.94,3.632,95.701,3.632l-87.81-77.832C106.844,325.596,98.486,330.67,88.802,334.707z"/>
<g>
	<path style="fill:#498A68;" d="M171.985,461.684c-0.557,0-1.118-0.021-1.683-0.065c-11.919-0.917-20.839-11.322-19.922-23.243
		c0.832-10.816-0.06-46.891-1.612-54.88c-3.562-10.724,1.763-22.521,12.38-26.849c11.071-4.511,23.702,0.806,28.214,11.876
		c5.837,14.323,4.448,69.707,4.181,73.172C192.669,453.051,183.184,461.683,171.985,461.684z M149.262,384.839
		c0.003,0.008,0.007,0.016,0.01,0.024C149.269,384.855,149.265,384.848,149.262,384.839z"/>
	<path style="fill:#498A68;" d="M250.485,461.684c-0.558,0-1.118-0.021-1.683-0.065c-11.919-0.917-20.839-11.322-19.922-23.243
		c0.832-10.816-0.06-46.891-1.612-54.881c-3.562-10.724,1.764-22.522,12.381-26.848c11.074-4.511,23.703,0.807,28.213,11.877
		c5.836,14.324,4.446,69.706,4.18,73.171C271.169,453.051,261.685,461.683,250.485,461.684z M227.762,384.837
		c0.003,0.008,0.007,0.017,0.01,0.025C227.769,384.854,227.766,384.846,227.762,384.837z"/>
</g>
<path style="opacity:0.1;enable-background:new    ;" d="M161.148,356.649c-10.617,4.328-15.942,16.124-12.38,26.849
	c1.085,5.583,1.846,24.879,1.923,39.689c12.28,3.551,26.596,5.681,43.146,6.47c0.2-17.99-0.191-50.618-4.475-61.131
	C184.85,357.456,172.219,352.139,161.148,356.649z"/>
<path style="opacity:0.1;enable-background:new    ;" d="M272.377,421.639c-0.017-18.399-0.81-44.022-4.514-53.113
	c-4.51-11.07-17.139-16.388-28.213-11.877c-10.617,4.326-15.943,16.122-12.381,26.848c1.245,6.406,2.063,30.864,1.91,45.883
	C245.89,428.283,260.208,425.729,272.377,421.639z"/>
<path style="fill:#5CB38E;" d="M307.892,321.269c0,50.533-6.864,87.097-98.823,87.097s-98.823-36.564-98.823-87.097
	s44.244-91.497,98.823-91.497S307.892,270.736,307.892,321.269z"/>
<path style="fill:#9BDFC1;" d="M307.892,321.269c0-0.403-0.011-0.803-0.016-1.205c-20.584-5.282-61.411-6.818-89.822,23.375
	c-20.704,22.003-23.7,45.746-21.479,64.682c3.98,0.162,8.141,0.244,12.494,0.244C301.027,408.366,307.892,371.801,307.892,321.269z"
	/>
<path style="opacity:0.05;enable-background:new    ;" d="M190.307,231.426c-45.605,8.116-80.062,45.25-80.062,89.844
	c0,46.79,5.896,81.6,79.773,86.5C149,366.135,156.933,280.171,190.307,231.426z"/>
<path style="fill:#5CB38E;" d="M306.028,101.308L306.028,101.308c-14.586-26.893-41.693-44.673-72.171-47.339l-37.464-3.278
	c-53.264-4.66-100.22,34.741-104.88,88.006l-3.879,44.341c-4.182,47.803,31.18,89.947,78.983,94.129l198.6,17.375
	c35.811,3.133,67.381-23.358,70.514-59.169l2.64-30.178c3.133-35.811-23.358-67.381-59.169-70.514l-25.728-2.251
	C333.438,130.677,315.618,118.988,306.028,101.308z"/>
<g style="opacity:0.1;">
	<circle cx="138.175" cy="208.696" r="6.662"/>
	<circle cx="184.476" cy="222.947" r="6.662"/>
	<circle cx="155.495" cy="243.227" r="6.662"/>
</g>
<g>
	
		<ellipse transform="matrix(0.0872 -0.9962 0.9962 0.0872 32.0699 292.9844)" style="fill:#FFA8CB;" cx="175.91" cy="128.992" rx="8.615" ry="16.794"/>
	
		<ellipse transform="matrix(-0.0872 0.9962 -0.9962 -0.0872 451.6419 -136.2374)" style="fill:#FFA8CB;" cx="288.238" cy="138.799" rx="8.615" ry="16.794"/>
</g>
<g>
	<path style="fill:#495059;" d="M198.64,121.323c-0.219,0-0.44-0.009-0.663-0.028c-4.126-0.361-7.179-3.999-6.818-8.126l0.73-8.336
		c0.361-4.126,4.004-7.18,8.125-6.817c4.127,0.361,7.179,3.999,6.818,8.126l-0.729,8.336
		C205.762,118.381,202.486,121.323,198.64,121.323z"/>
	<path style="fill:#495059;" d="M268.506,127.436c-0.22,0-0.44-0.009-0.663-0.028c-4.126-0.361-7.179-3.999-6.817-8.126l0.73-8.336
		c0.361-4.126,4.009-7.18,8.126-6.817c4.126,0.361,7.179,3.999,6.817,8.126l-0.73,8.336
		C275.628,124.493,272.353,127.436,268.506,127.436z"/>
	<path style="fill:#495059;" d="M358.103,253.142c-0.727,0-1.456-0.032-2.188-0.096c-7.234-0.634-13.838-4.368-18.121-10.246
		c-2.439-3.348-1.703-8.039,1.646-10.477c3.345-2.439,8.039-1.704,10.478,1.646c1.729,2.372,4.392,3.88,7.305,4.135
		c2.92,0.262,5.796-0.767,7.909-2.803c2.982-2.874,7.731-2.786,10.604,0.196c2.874,2.982,2.786,7.73-0.196,10.605
		C370.832,250.637,364.576,253.142,358.103,253.142z"/>
	<circle style="fill:#495059;" cx="342.261" cy="165.575" r="6.662"/>
	<circle style="fill:#495059;" cx="384.552" cy="169.275" r="6.662"/>
</g>
<path style="opacity:0.05;enable-background:new    ;" d="M174.758,51.209c-43.804,5.986-79.23,41.587-83.245,87.488l-3.879,44.341
	c-4.182,47.803,31.18,89.947,78.983,94.129l52.523,4.595C146.541,230.563,144.279,107.089,174.758,51.209z"/>
<g>
	<path style="fill:#959BA0;" d="M428.224,434.716c-2.491,0-4.927-1.24-6.353-3.504c-2.208-3.505-1.156-8.136,2.349-10.343
		c7.643-4.815,15.835-19.07,17.187-29.909c0.523-4.194-0.042-7.51-1.551-9.096c-2.856-3.001-2.737-7.748,0.264-10.604
		c2.999-2.853,7.747-2.736,10.604,0.264c4.757,4.999,6.683,12.362,5.568,21.293c-1.908,15.307-12.709,33.584-24.077,40.744
		C430.973,434.343,429.59,434.716,428.224,434.716z"/>
	<path style="fill:#959BA0;" d="M493.745,442.628c-1.813,0-3.632-0.653-5.073-1.978c-17.432-16.018-9.468-32.351-2.442-46.759
		c6.544-13.419,13.96-28.629,9.339-50.147c-2.976-13.855-20.169-26.275-42.737-22.185c-4.077,0.741-7.979-1.967-8.718-6.042
		c-0.738-4.076,1.967-7.979,6.042-8.718c12.102-2.192,25.254-0.495,36.086,4.658c12.738,6.06,21.261,16.407,23.994,29.136
		c5.709,26.586-3.672,45.824-10.522,59.872c-7.495,15.371-9.642,21.098-0.89,29.14c3.05,2.803,3.25,7.547,0.447,10.598
		C497.791,441.812,495.771,442.628,493.745,442.628z"/>
</g>
<rect x="229.862" y="193.943" transform="matrix(-0.342 0.9397 -0.9397 -0.342 655.1961 169.5596)" style="fill:#FAE17C;" width="76.742" height="240.457"/>
<rect x="95.504" y="242.523" transform="matrix(-0.342 0.9397 -0.9397 -0.342 428.9385 230.194)" style="fill:#E5E5E5;" width="76.742" height="45.501"/>
<path style="fill:#CD5B5B;" d="M125.626,221.442l-26.248,72.114l-34.699-12.629c-10.771-3.92-16.324-15.83-12.404-26.601
	l12.05-33.109c3.92-10.771,15.829-16.324,26.601-12.404L125.626,221.442z"/>
<polygon style="fill:#FFA8CB;" points="424.208,350.533 394.336,319.244 368.089,391.358 411.085,386.591 "/>
<path style="fill:#495059;" d="M411.085,386.591l27.303-3.028c6.428-0.713,9.256-8.482,4.79-13.16l-18.97-19.87L411.085,386.591z"/>
<rect x="148.015" y="306.676" transform="matrix(-0.9397 -0.342 0.342 -0.9397 412.8632 701.1464)" style="opacity:0.1;enable-background:new    ;" width="240.457" height="15"/>
<path style="opacity:0.1;enable-background:new    ;" d="M74.848,209.616c-4.716,2.265-8.589,6.295-10.52,11.6l-12.05,33.109
	c-3.92,10.771,1.633,22.681,12.404,26.601l186.573,67.907C179.814,304.02,83.438,265.28,74.848,209.616z"/>
<path style="fill:#498A68;" d="M209.859,354.789c-4.409,0-8.749-2.065-11.492-5.936c-4.492-6.34-2.994-15.121,3.346-19.614
	c3.433-2.432,6.391-5.093,8.794-7.908c5.042-5.91,13.924-6.614,19.835-1.57c5.911,5.044,6.614,13.924,1.571,19.836
	c-3.913,4.585-8.6,8.826-13.931,12.603C215.511,353.948,212.671,354.789,209.859,354.789z"/>
<g>
</g>
<g>
</g>
<g>
</g>
<g>
</g>
<g>
</g>
<g>
</g>
<g>
</g>
<g>
</g>
<g>
</g>
<g>
</g>
<g>
</g>
<g>
</g>
<g>
</g>
<g>
</g>
<g>
</g>
</svg>
